HIERARCHY
ROOT Hips
{
	OFFSET 53.860100 -17.788815 94.048897
	CHANNELS 6 Xposition Yposition Zposition Xrotation Yrotation Zrotation
	JOINT spine
	{
		OFFSET 0.000000 -0.448574 7.800583
		CHANNELS 3 Xrotation Yrotation Zrotation
		JOINT spine1
		{
			OFFSET 0.000000 -0.000002 10.136398
			CHANNELS 3 Xrotation Yrotation Zrotation
			JOINT spine2
			{
				OFFSET 0.000000 0.000000 9.712509
				CHANNELS 3 Xrotation Yrotation Zrotation
				JOINT Neck
				{
					OFFSET 0.000000 -1.188875 24.936104
					CHANNELS 3 Xrotation Yrotation Zrotation
					JOINT Head
					{
						OFFSET 0.000000 0.000000 7.533844
						CHANNELS 3 Xrotation Yrotation Zrotation
						End Site
						{
							OFFSET 0.000000 6.014017 18.236099
						}
					}
				}
				JOINT RightShoulder
				{
					OFFSET -4.089649 0.569454 10.488808
					CHANNELS 3 Xrotation Yrotation Zrotation
					JOINT RightArm
					{
						OFFSET 0.000000 -0.000002 13.757004
						CHANNELS 3 Xrotation Yrotation Zrotation
						JOINT RightArmRoll
						{
							OFFSET 0.000000 -0.000002 6.944778
							CHANNELS 3 Xrotation Yrotation Zrotation
							JOINT RightForeArm
							{
								OFFSET 0.000000 -0.000004 20.227692
								CHANNELS 3 Xrotation Yrotation Zrotation
								JOINT RightForeArmRoll
								{
									OFFSET 0.000000 0.000000 7.793121
									CHANNELS 3 Xrotation Yrotation Zrotation
									JOINT RightHand
									{
										OFFSET 0.000000 -0.000004 15.639099
										CHANNELS 3 Xrotation Yrotation Zrotation
										End Site
										{
											OFFSET 0.000000 0.000000 0.100006
										}
									}
								}
							}
						}
					}
				}
				JOINT LeftShoulder
				{
					OFFSET 4.089649 0.569454 10.488808
					CHANNELS 3 Xrotation Yrotation Zrotation
					JOINT LeftArm
					{
						OFFSET 0.000000 -0.000002 13.757004
						CHANNELS 3 Xrotation Yrotation Zrotation
						JOINT LeftArmRoll
						{
							OFFSET 0.000000 -0.000002 6.944778
							CHANNELS 3 Xrotation Yrotation Zrotation
							JOINT LeftForeArm
							{
								OFFSET 0.000000 -0.000004 20.227692
								CHANNELS 3 Xrotation Yrotation Zrotation
								JOINT LeftForeArmRoll
								{
									OFFSET 0.000000 0.000000 7.793121
									CHANNELS 3 Xrotation Yrotation Zrotation
									JOINT LeftHand
									{
										OFFSET 0.000000 -0.000004 15.639099
										CHANNELS 3 Xrotation Yrotation Zrotation
										End Site
										{
											OFFSET 0.000000 0.000000 0.100006
										}
									}
								}
							}
						}
					}
				}
			}
		}
	}
	JOINT RightUpLeg
	{
		OFFSET -6.914150 1.063580 -1.267883
		CHANNELS 3 Xrotation Yrotation Zrotation
		JOINT RightUpLegRoll
		{
			OFFSET 0.000000 -0.000002 18.337799
			CHANNELS 3 Xrotation Yrotation Zrotation
			JOINT RightLeg
			{
				OFFSET 0.000000 0.000002 -22.708504
				CHANNELS 3 Xrotation Yrotation Zrotation
				JOINT RightLegRoll
				{
					OFFSET 0.000000 -0.000002 22.782799
					CHANNELS 3 Xrotation Yrotation Zrotation
					JOINT RightFoot
					{
						OFFSET 0.000000 -0.000004 18.962898
						CHANNELS 3 Xrotation Yrotation Zrotation
						JOINT RightToeBase
						{
							OFFSET 0.000000 -0.000002 15.852005
							CHANNELS 3 Xrotation Yrotation Zrotation
							End Site
							{
								OFFSET 0.006718 0.884892 7.677017
							}
						}
					}
				}
			}
		}
	}
	JOINT LeftUpLeg
	{
		OFFSET 6.914150 1.063580 -1.267883
		CHANNELS 3 Xrotation Yrotation Zrotation
		JOINT LeftUpLegRoll
		{
			OFFSET 0.000000 -0.000002 18.337898
			CHANNELS 3 Xrotation Yrotation Zrotation
			JOINT LeftLeg
			{
				OFFSET 0.000000 -0.000004 22.708405
				CHANNELS 3 Xrotation Yrotation Zrotation
				JOINT LeftLegRoll
				{
					OFFSET 0.000000 -0.000004 22.993393
					CHANNELS 3 Xrotation Yrotation Zrotation
					JOINT LeftFoot
					{
						OFFSET 0.000000 -0.000004 18.752197
						CHANNELS 3 Xrotation Yrotation Zrotation
						JOINT LeftToeBase
						{
							OFFSET 0.000000 -0.000002 15.852005
							CHANNELS 3 Xrotation Yrotation Zrotation
							End Site
							{
								OFFSET -0.030113 0.884892 7.677017
							}
						}
					}
				}
			}
		}
	}
}
MOTION
Frames: 13
Frame Time: 0.041667
53.946301 -17.002617 94.064102 -6.379920 -0.515883 -1.424461 -0.701376 0.130688 0.376273 2.613548 0.267444 0.763491 4.258569 0.276530 0.760355 19.508267 6.510822 -0.697512 -14.763879 -3.027843 -0.688347 -28.277524 -81.657357 -32.122766 88.033605 -76.604383 88.452234 -0.000000 -0.000000 -0.000000 22.480637 -17.451454 3.219773 -0.000001 0.000010 -3.000000 -5.000271 -7.998974 0.000198 7.686901 69.691528 -7.193046 -0.625105 102.802741 -11.324612 0.000000 -0.000000 -0.000001 18.516890 7.248428 0.181054 -0.000004 0.000021 3.000002 -5.000297 7.999061 -0.000134 0.446386 -174.232170 0.963062 -179.999991 0.000005 -0.911006 166.945273 0.745235 -0.935206 -0.000011 -0.000002 0.090689 71.086478 5.406637 6.041218 25.458074 -7.355610 0.001692 2.305558 179.406475 7.059755 -0.000005 -0.000004 -1.410420 -11.624839 3.559408 0.666328 -0.000004 0.000000 -0.246900 72.971835 -7.105257 -1.248308 25.456959 7.355606 -0.000006 
53.947498 -17.011417 94.068703 -6.388410 -0.516160 -1.426380 -0.699459 0.130468 0.376439 2.616408 0.266558 0.763875 4.261429 0.275651 0.760740 19.488336 6.513610 -0.699701 -14.756631 -3.039338 -0.691515 -28.303771 -81.664481 -32.149810 87.941725 -76.753916 88.245450 -0.000000 0.000001 0.000000 22.919834 -17.401485 3.273920 -0.000002 0.000009 -3.000001 -5.000277 -7.998969 0.000199 7.695286 69.696596 -7.201511 -0.357700 102.840246 -11.639026 -0.000000 0.000000 -0.000001 18.646901 7.207317 0.180657 -0.000003 0.000021 3.000002 -5.000294 7.999062 -0.000134 0.457511 -174.231186 0.965317 -179.999991 0.000004 -0.911006 166.943074 0.746199 -0.934953 -0.000012 -0.000002 0.091045 71.091122 5.406481 6.042267 25.458070 -7.355610 0.001692 2.324845 179.409481 7.062667 -0.000005 -0.000004 -1.410420 -11.616084 3.556513 0.666342 -0.000004 0.000001 -0.246943 72.971344 -7.104329 -1.248099 25.456959 7.355607 -0.000006 
53.944401 -17.005611 94.067200 -6.396961 -0.516348 -1.428439 -0.697558 0.130247 0.376586 2.619208 0.265655 0.764278 4.264230 0.274754 0.761145 19.469003 6.516344 -0.702067 -14.749278 -3.050845 -0.694804 -28.331439 -81.672062 -32.178298 87.841581 -76.901353 88.029274 -0.000000 0.000001 -0.000000 23.353923 -17.355159 3.327147 -0.000003 0.000010 -3.000000 -5.000273 -7.998970 0.000199 7.705019 69.701609 -7.211450 -0.096830 102.877026 -11.946285 0.000000 0.000001 0.000000 18.773378 7.166540 0.180607 -0.000002 0.000021 3.000001 -5.000294 7.999062 -0.000134 0.468572 -174.230189 0.967476 -179.999991 0.000005 -0.911006 166.940574 0.748134 -0.934470 -0.000012 -0.000001 0.091419 71.095883 5.406330 6.043410 25.458074 -7.355612 0.001693 2.344235 179.412486 7.065888 -0.000005 -0.000004 -1.410431 -11.607527 3.553379 0.666362 -0.000004 0.000001 -0.247011 72.970948 -7.103362 -1.247680 25.456957 7.355606 -0.000006 
53.945099 -17.016315 94.068901 -6.405562 -0.516474 -1.430572 -0.695665 0.130026 0.376720 2.621968 0.264742 0.764693 4.266989 0.273846 0.761562 19.449973 6.519039 -0.704535 -14.741625 -3.062375 -0.698170 -28.359956 -81.679931 -32.207668 87.733240 -77.047403 87.804131 0.000001 0.000001 0.000000 23.784349 -17.311355 3.379596 -0.000002 0.000010 -3.000000 -5.000268 -7.998971 0.000198 7.715745 69.706773 -7.222469 0.159050 102.915057 -12.248308 0.000000 0.000000 -0.000001 18.897236 7.126017 0.180880 -0.000001 0.000021 3.000001 -5.000295 7.999061 -0.000134 0.479588 -174.229205 0.969569 -179.999991 0.000005 -0.911006 166.937856 0.749110 -0.935203 -0.000012 -0.000002 0.091807 71.100726 5.406151 6.044645 25.458068 -7.355612 0.001693 2.363697 179.416488 7.069365 -0.000005 -0.000004 -1.410450 -11.599071 3.550086 0.666384 -0.000004 0.000000 -0.247091 72.970565 -7.102397 -1.247359 25.456959 7.355607 -0.000006 
53.945000 -17.020113 94.064201 -6.414182 -0.516564 -1.432761 -0.693785 0.129804 0.376847 2.624688 0.263821 0.765116 4.269718 0.272931 0.761988 19.431144 6.521725 -0.707075 -14.733978 -3.073915 -0.701586 -28.389384 -81.688058 -32.237957 87.618568 -77.192667 87.572273 -0.000000 0.000001 0.000000 24.212607 -17.269239 3.431483 -0.000001 0.000010 -3.000000 -5.000271 -7.998972 0.000198 7.727057 69.712012 -7.234130 0.411375 102.954331 -12.546384 -0.000000 0.000000 -0.000001 19.019667 7.085646 0.181383 -0.000004 0.000021 3.000001 -5.000294 7.999061 -0.000134 0.490572 -174.228208 0.971623 -179.999991 0.000005 -0.911006 166.935151 0.750074 -0.934942 -0.000012 -0.000001 0.092203 71.105568 5.405974 6.045881 25.458068 -7.355612 0.001692 2.383187 179.419507 7.072910 -0.000005 -0.000004 -1.410460 -11.590710 3.546695 0.666410 -0.000004 0.000001 -0.247179 72.970169 -7.101429 -1.246939 25.456959 7.355605 -0.000006 
53.946800 -17.024714 94.065697 -6.422814 -0.516645 -1.434969 -0.691902 0.129584 0.376972 2.627418 0.262898 0.765542 4.272438 0.272015 0.762415 19.412412 6.524405 -0.709624 -14.726335 -3.085466 -0.705014 -28.418846 -81.696186 -32.268283 87.497694 -77.337638 87.334207 -0.000000 0.000001 -0.000000 24.640129 -17.227603 3.482816 0.000000 0.000010 -3.000000 -5.000274 -7.998970 0.000199 7.738452 69.717155 -7.245885 0.661670 102.992839 -12.842513 -0.000000 -0.000000 0.000000 19.141793 7.045335 0.182078 -0.000003 0.000021 3.000001 -5.000295 7.999062 -0.000134 0.501550 -174.227225 0.973669 -179.999991 0.000004 -0.911006 166.932350 0.751037 -0.934680 -0.000012 -0.000001 0.092600 71.110418 5.405796 6.047215 25.458068 -7.355610 0.001693 2.402699 179.423510 7.076541 -0.000005 -0.000004 -1.410479 -11.582350 3.543283 0.666437 -0.000006 0.000001 -0.247270 72.969862 -7.100396 -1.246602 25.456960 7.355605 -0.000006 
53.950100 -17.027517 94.061203 -6.431423 -0.516742 -1.437138 -0.690019 0.129362 0.377101 2.630147 0.261979 0.765963 4.275167 0.271101 0.762838 19.393584 6.527100 -0.712154 -14.718585 -3.097001 -0.708403 -28.447741 -81.704144 -32.298032 87.372477 -77.483039 87.092172 -0.000001 -0.000001 -0.000000 25.068558 -17.185393 3.533736 -0.000002 0.000009 -3.000001 -5.000275 -7.998970 0.000198 7.749630 69.722393 -7.257398 0.911363 103.031600 -13.138077 0.000000 -0.000000 -0.000001 19.264610 7.005005 0.182909 -0.000004 0.000021 3.000001 -5.000295 7.999062 -0.000133 0.512542 -174.226228 0.975734 -179.999991 0.000005 -0.911006 166.929646 0.752972 -0.934193 -0.000011 -0.000001 0.092994 71.115274 5.405646 6.048357 25.458067 -7.355610 0.001691 2.422187 179.426515 7.080074 -0.000005 -0.000004 -1.410501 -11.573990 3.539920 0.666466 -0.000004 0.000000 -0.247357 72.969465 -7.099428 -1.246182 25.456962 7.355605 -0.000006 
53.945999 -17.031815 94.061798 -6.440005 -0.516884 -1.439252 -0.688128 0.129141 0.377239 2.632917 0.261068 0.766376 4.277937 0.270197 0.763252 19.374455 6.529816 -0.714582 -14.711143 -3.108531 -0.711741 -28.476544 -81.711991 -32.327675 87.243140 -77.629369 86.846743 -0.000001 0.000001 -0.000000 25.499360 -17.141748 3.584337 0.000000 0.000009 -3.000000 -5.000273 -7.998971 0.000198 7.760085 69.727475 -7.268120 1.161813 103.071605 -13.434599 0.000000 -0.000000 0.000000 19.389223 6.964562 0.183837 -0.000002 0.000021 3.000001 -5.000296 7.999062 -0.000134 0.523567 -174.225244 0.977847 -179.999991 0.000005 -0.911006 166.927050 0.753948 -0.934928 -0.000011 -0.000001 0.093378 71.120028 5.405492 6.049500 25.458070 -7.355612 0.001693 2.441615 179.430517 7.083508 -0.000005 -0.000004 -1.410511 -11.565433 3.536678 0.666489 -0.000005 0.000001 -0.247433 72.969069 -7.098462 -1.245862 25.456959 7.355607 -0.000006 
53.942902 -17.026514 94.063400 -6.448543 -0.517095 -1.441274 -0.686221 0.128921 0.377391 2.635738 0.260171 0.766773 4.280758 0.269305 0.763652 19.354820 6.532592 -0.716864 -14.703790 -3.120042 -0.714973 -28.503944 -81.719382 -32.355883 87.111174 -77.777242 86.599818 -0.000001 0.000000 0.000000 25.933839 -17.095559 3.634530 -0.000004 0.000009 -3.000000 -5.000274 -7.998971 0.000198 7.769447 69.732495 -7.277652 1.414589 103.110865 -13.733808 0.000000 -0.000000 -0.000001 19.516641 6.923918 0.184836 -0.000005 0.000021 3.000001 -5.000296 7.999062 -0.000134 0.534646 -174.224260 0.980038 -179.999991 0.000005 -0.911006 166.924550 0.754911 -0.934669 -0.000011 -0.000001 0.093746 71.124761 5.405306 6.050739 25.458068 -7.355610 0.001693 2.460972 179.433523 7.086655 -0.000005 -0.000004 -1.410519 -11.556877 3.533620 0.666518 -0.000004 0.000001 -0.247493 72.968680 -7.097496 -1.245543 25.456960 7.355605 -0.000006 
53.945099 -17.032515 94.061806 -6.457005 -0.517401 -1.443147 -0.684293 0.128701 0.377564 2.638628 0.259293 0.767151 4.283647 0.268432 0.764031 19.334686 6.535412 -0.718967 -14.696646 -3.131531 -0.718070 -28.530122 -81.726307 -32.382825 86.977207 -77.927267 86.352395 -0.000000 -0.000000 0.000000 26.373609 -17.045782 3.684319 -0.000003 0.000009 -3.000001 -5.000276 -7.998973 0.000199 7.777315 69.737481 -7.285550 1.671028 103.150405 -14.037208 -0.000000 0.000000 0.000000 19.648065 6.882981 0.185843 -0.000004 0.000021 3.000000 -5.000296 7.999061 -0.000134 0.545805 -174.222266 0.982343 -179.999991 0.000005 -0.911006 166.922447 0.755877 -0.934416 -0.000012 -0.000001 0.094094 71.129412 5.405147 6.051786 25.458072 -7.355609 0.001693 2.480215 179.436528 7.089473 -0.000005 -0.000004 -1.410521 -11.548126 3.530820 0.666543 -0.000005 0.000001 -0.247528 72.968106 -7.096603 -1.245245 25.456959 7.355605 -0.000006 
53.939999 -17.042915 94.060806 -6.465385 -0.517831 -1.444852 -0.682341 0.128482 0.377762 2.641607 0.258437 0.767500 4.286626 0.267582 0.764383 19.313753 6.538311 -0.720834 -14.689889 -3.142976 -0.720996 -28.554318 -81.732584 -32.407759 86.842351 -78.080052 86.105941 -0.000001 0.000000 0.000000 26.820116 -16.991520 3.733687 -0.000001 0.000010 -3.000000 -5.000274 -7.998972 0.000199 7.783227 69.742358 -7.291315 1.932495 103.190245 -14.346326 0.000000 -0.000000 0.000001 19.784399 6.841669 0.186848 0.000001 0.000021 3.000001 -5.000294 7.999061 -0.000135 0.557058 -174.221269 0.984774 -179.999991 0.000005 -0.911006 166.920548 0.756842 -0.934165 -0.000012 -0.000001 0.094414 71.133852 5.405040 6.052753 25.458070 -7.355610 0.001692 2.499313 179.439533 7.091876 -0.000005 -0.000004 -1.410530 -11.539075 3.528346 0.666559 -0.000005 0.000001 -0.247533 72.967526 -7.095742 -1.245051 25.456960 7.355606 -0.000006 
53.942402 -17.045317 94.060303 -6.473657 -0.518408 -1.446353 -0.680356 0.128265 0.377992 2.644697 0.257610 0.767820 4.289716 0.266760 0.764704 19.291909 6.541305 -0.722405 -14.683548 -3.154387 -0.723716 -28.576434 -81.738124 -32.430544 86.708282 -78.236129 85.862513 -0.000000 -0.000001 -0.000000 27.274624 -16.931773 3.782486 -0.000003 0.000009 -3.000000 -5.000274 -7.998971 0.000199 7.786830 69.747132 -7.294558 2.200357 103.230420 -14.662693 0.000000 -0.000000 0.000001 19.926947 6.799897 0.187797 -0.000003 0.000021 3.000000 -5.000295 7.999061 -0.000134 0.568428 -174.220285 0.987369 -179.999991 0.000004 -0.911006 166.919032 0.757809 -0.934917 -0.000011 -0.000002 0.094702 71.138189 5.404896 6.053720 25.458068 -7.355612 0.001692 2.518255 179.441528 7.093718 -0.000005 -0.000004 -1.410520 -11.529831 3.526277 0.666578 -0.000005 0.000000 -0.247504 72.966863 -7.094917 -1.244871 25.456957 7.355604 -0.000006 
53.956001 -17.093515 94.069801 -6.481807 -0.519161 -1.447593 -0.678341 0.128049 0.378258 2.647906 0.256818 0.768101 4.292926 0.265972 0.764988 19.268869 6.544401 -0.723617 -14.677602 -3.165756 -0.726191 -28.595893 -81.742741 -32.450601 86.575674 -78.396105 85.623169 -0.000001 0.000000 0.000000 27.738742 -16.865462 3.830567 0.000001 0.000009 -3.000001 -5.000269 -7.998972 0.000199 7.787689 69.751729 -7.294798 2.475951 103.270951 -14.987687 -0.000000 -0.000000 -0.000001 20.076612 6.757575 0.188696 -0.000004 0.000021 3.000001 -5.000297 7.999062 -0.000134 0.579937 -174.218291 0.990165 -179.999991 0.000005 -0.911006 166.918034 0.757807 -0.934904 -0.000011 -0.000001 0.094952 71.142328 5.404770 6.054498 25.458072 -7.355612 0.001693 2.536984 179.443549 7.094975 -0.000005 -0.000004 -1.410510 -11.520292 3.524680 0.666593 -0.000005 0.000000 -0.247428 72.966132 -7.094186 -1.244706 25.456959 7.355606 -0.000006 
